<svg xmlns="http://www.w3.org/2000/svg" viewBox="0 0 24 24"><title>clock</title><g id="8d48f2fc-4ef2-4ff6-a9d7-e4174b6ba566" data-name="Layer 2"><g id="dec55d38-5848-447f-9524-d4494d0d5178" data-name="Layer 1"><path d="M12,24A12,12,0,0,1,12,0a1,1,0,0,1,0,2A10,10,0,1,0,22,12a1,1,0,0,1,2,0A12,12,0,0,1,12,24M12,2a1.05,1.05,0,0,1-.71-.29A1.05,1.05,0,0,1,11,1a1.05,1.05,0,0,1,.29-.71,1,1,0,0,1,1.42,0A1.05,1.05,0,0,1,13,1a1.05,1.05,0,0,1-.29.71A1.05,1.05,0,0,1,12,2m9.24,6.17a1,1,0,1,1,1.31.54,1.08,1.08,0,0,1-.38.08,1,1,0,0,1-.93-.62M19.07,4.93a1,1,0,0,1,0-1.42,1,1,0,1,1,.71,1.71,1,1,0,0,1-.71-.29M15.83,2.76A1,1,0,0,1,16.6.91a1,1,0,0,1-.39,1.92,1,1,0,0,1-.38-.07M23,13a1,1,0,1,1,.71-.29A1,1,0,0,1,23,13m-7,2a1,1,0,0,1-.45-.1l-4-2A1,1,0,0,1,11,12V5a1,1,0,0,1,2,0v6.38l3.45,1.72A1,1,0,0,1,16,15" style="fill:#d1d2da"/></g></g></svg>