<svg xmlns="http://www.w3.org/2000/svg" viewBox="0 0 381 381"><title>igm</title><g id="5dc91c90-02af-46b1-a6f7-1f5509164589" data-name="Layer 2"><g id="6787a904-6954-4506-b569-83c088471391" data-name="Layer 1"><path d="M190.5,92A98.5,98.5,0,1,0,289,190.5,98.5,98.5,0,0,0,190.5,92Zm0,161A63.5,63.5,0,1,1,254,189.5,63.5,63.5,0,0,1,190.5,253ZM292,65a23,23,0,1,0,23,23A23,23,0,0,0,292,65ZM271,0H110A110,110,0,0,0,0,110V271A110,110,0,0,0,110,381H271A110,110,0,0,0,381,271V110A110,110,0,0,0,271,0Zm74,274a70,70,0,0,1-70,70s-40.82,2-82.33,2c-43,0-86.67-2-86.67-2a70,70,0,0,1-70-70s-1-39.3-1-80c0-43.7,1-89,1-89a70,70,0,0,1,70-70s44.17-2,88.67-2C234.4,33,275,35,275,35a70,70,0,0,1,70,70s2,45.3,2,89C347,234.7,345,274,345,274Z" style="fill:#fff;fill-rule:evenodd"/></g></g></svg>