<svg xmlns="http://www.w3.org/2000/svg" viewBox="0 0 38.61 51"><title>marker</title><g id="b21704fd-2a92-4d7f-b4e7-661a2b323959" data-name="Layer 2"><g id="9b19819c-fb16-4505-8523-a1d980fd1ea5" data-name="Слой 1"><path d="M19.3,50.5a1,1,0,0,1-.75-.34C17.81,49.31.5,29.39.5,19.29a18.8,18.8,0,0,1,37.61,0c0,10.1-17.31,30-18.05,30.87A1,1,0,0,1,19.3,50.5Zm0-48A16.82,16.82,0,0,0,2.5,19.29C2.5,27.52,15.94,44,19.3,48c3.36-4,16.8-20.44,16.8-28.67A16.82,16.82,0,0,0,19.3,2.5Z" style="fill:#fff;stroke:#fff;stroke-miterlimit:10"/><path d="M19.3,29.13a9.83,9.83,0,1,1,9.82-9.84A9.84,9.84,0,0,1,19.3,29.13Zm0-17.66a7.83,7.83,0,1,0,7.82,7.82A7.83,7.83,0,0,0,19.3,11.47Z" style="fill:#fff;stroke:#fff;stroke-miterlimit:10"/></g></g></svg>