<svg xmlns="http://www.w3.org/2000/svg" xmlns:xlink="http://www.w3.org/1999/xlink" viewBox="0 0 24 24"><defs><clipPath id="f07937b9-723e-4cb8-b62b-d752dd4ac318" transform="translate(0)"><rect width="24" height="24" style="fill:none"/></clipPath></defs><title>play</title><g id="7e766f96-c8e5-4222-bfd3-27c1777fa386" data-name="Layer 2"><g id="fe70f61a-3b27-4d8f-ae7b-181a1bb9c879" data-name="Layer 1"><g style="clip-path:url(#f07937b9-723e-4cb8-b62b-d752dd4ac318)"><path d="M12,0A12,12,0,1,0,24,12,12,12,0,0,0,12,0m4.91,12.72-6.82,4.49a.62.62,0,0,1-.33.13.73.73,0,0,1-.39-.13A1,1,0,0,1,9,16.47v-9a.9.9,0,0,1,.33-.74.6.6,0,0,1,.72,0l6.82,4.48a.89.89,0,0,1,0,1.47" transform="translate(0)" style="fill:#fff"/></g></g></g></svg>