<svg xmlns="http://www.w3.org/2000/svg" xmlns:xlink="http://www.w3.org/1999/xlink" viewBox="0 0 98.52 100"><defs><clipPath id="a3127450-8462-4a27-92df-2f7984af5e9d" transform="translate(-0.74)"><rect width="100" height="100" style="fill:none"/></clipPath></defs><title>schedule</title><g id="afd6ed3d-f33f-4c67-b497-5009bceafe9f" data-name="Layer 2"><g id="ac2c229c-6999-40f7-a7bd-3abbbfdaa9ad" data-name="Layer 1"><g style="clip-path:url(#a3127450-8462-4a27-92df-2f7984af5e9d)"><path d="M26,45.59h3a5.17,5.17,0,0,1,5.17,5.17v3A5.17,5.17,0,0,1,29,59H26a5.17,5.17,0,0,1-5.17-5.17v-3A5.17,5.17,0,0,1,26,45.59" transform="translate(-0.74)" style="fill:#d1d2da"/><path d="M48.49,45.59h3a5.17,5.17,0,0,1,5.17,5.17v3A5.17,5.17,0,0,1,51.52,59h-3a5.17,5.17,0,0,1-5.17-5.17v-3a5.17,5.17,0,0,1,5.17-5.17" transform="translate(-0.74)" style="fill:#d1d2da"/><path d="M71,45.59h3a5.17,5.17,0,0,1,5.17,5.17v3A5.17,5.17,0,0,1,74,59H71a5.17,5.17,0,0,1-5.17-5.17v-3A5.17,5.17,0,0,1,71,45.59" transform="translate(-0.74)" style="fill:#d1d2da"/><path d="M26,67.9h3a5.17,5.17,0,0,1,5.17,5.17v3A5.17,5.17,0,0,1,29,81.27H26a5.17,5.17,0,0,1-5.17-5.17v-3A5.17,5.17,0,0,1,26,67.9" transform="translate(-0.74)" style="fill:#d1d2da"/><path d="M48.49,67.9h3a5.17,5.17,0,0,1,5.17,5.17v3a5.17,5.17,0,0,1-5.17,5.17h-3a5.17,5.17,0,0,1-5.17-5.17v-3a5.17,5.17,0,0,1,5.17-5.17" transform="translate(-0.74)" style="fill:#d1d2da"/><path d="M71,67.9h3a5.17,5.17,0,0,1,5.17,5.17v3A5.17,5.17,0,0,1,74,81.27H71a5.17,5.17,0,0,1-5.17-5.17v-3A5.17,5.17,0,0,1,71,67.9" transform="translate(-0.74)" style="fill:#d1d2da"/><path d="M87.53,100H12.47C6,100,.74,95.21.74,89.33V24.54C.74,18.65,6,13.87,12.47,13.87H87.53c6.47,0,11.73,4.78,11.73,10.67V89.33C99.26,95.21,94,100,87.53,100M12.47,21.77c-2.08,0-3.83,1.27-3.83,2.77V89.33c0,1.5,1.75,2.77,3.83,2.77H87.53c2.08,0,3.83-1.27,3.83-2.77V24.54c0-1.5-1.75-2.77-3.83-2.77Z" transform="translate(-0.74)" style="fill:#d1d2da"/><path d="M30.29,33.46a4,4,0,0,1-3.82-4V4.06a4,4,0,1,1,7.91-.15s0,.06,0,.09V29.51a4,4,0,0,1-4,4h0" transform="translate(-0.74)" style="fill:#d1d2da"/><path d="M49.86,33.46a4,4,0,0,1-3.81-4V4.06A4,4,0,0,1,54,3.86S54,4,54,4V29.51a4,4,0,0,1-4,4h-.09" transform="translate(-0.74)" style="fill:#d1d2da"/><path d="M69.44,33.46a4,4,0,0,1-3.82-4V4.06a4,4,0,1,1,7.91-.15s0,.06,0,.09V29.51a4,4,0,0,1-4,4h0" transform="translate(-0.74)" style="fill:#d1d2da"/></g></g></g></svg>