<svg xmlns="http://www.w3.org/2000/svg" xmlns:xlink="http://www.w3.org/1999/xlink" viewBox="0 0 94.9 94.1"><defs><clipPath id="7da7978d-196e-49c4-a4f1-00cb8472333f" transform="translate(0 0)"><rect width="94.9" height="94.1" style="fill:none"/></clipPath></defs><title>talk</title><g id="cfcbb5e3-e0ce-4c1d-88d2-21a2d3def269" data-name="Layer 2"><g id="1846982c-fc6f-4c7b-83fb-7253ec023572" data-name="Layer 1"><g style="clip-path:url(#7da7978d-196e-49c4-a4f1-00cb8472333f)"><path d="M80.8,43.9c-1,1.2-2.1,2.3-3.1,3.4V66.5H6.9V26.9H41.8V20.1H3.8A3.8,3.8,0,0,0,0,23.9V76a3.8,3.8,0,0,0,3.8,3.8H34.7v6.9H27.9A2,2,0,0,0,26,88.6v3.6a1.9,1.9,0,0,0,1.9,1.9H56.7a1.9,1.9,0,0,0,1.9-1.9V88.6a2,2,0,0,0-1.9-1.9H49.9V79.8H80.8A3.8,3.8,0,0,0,84.6,76V43.8a10.86,10.86,0,0,1-1.8.1ZM42.3,75.7a2.6,2.6,0,1,1,0-5.2,2.6,2.6,0,0,1,0,5.2" transform="translate(0 0)" style="fill:#d1d2da"/><path d="M82.7,0H59.5A12.29,12.29,0,0,0,47.2,12.3V26.1A12.29,12.29,0,0,0,59.5,38.4H61a18.56,18.56,0,0,1-1.1,4.7,4.78,4.78,0,0,0,1.3,5.3,4.65,4.65,0,0,0,5.4.6A40.72,40.72,0,0,0,78.1,38.4h4.5A12.29,12.29,0,0,0,94.9,26.1V12.3A12.14,12.14,0,0,0,82.7,0M74.3,33.7a46.21,46.21,0,0,1-8,8.4,25.27,25.27,0,0,0,.6-6.8A3,3,0,0,0,64,32.5H59.5a6.44,6.44,0,0,1-6.4-6.4V12.3a6.44,6.44,0,0,1,6.4-6.4H82.7a6.44,6.44,0,0,1,6.4,6.4V26.1a6.44,6.44,0,0,1-6.4,6.4h-6a3.3,3.3,0,0,0-2.4,1.2" transform="translate(0 0)" style="fill:#d1d2da"/><path d="M61.8,17.2H80.4a2.79,2.79,0,0,0,2.8-2.8,2.73,2.73,0,0,0-2.8-2.8H61.8a2.8,2.8,0,1,0,0,5.6" transform="translate(0 0)" style="fill:#d1d2da"/><path d="M80.4,20.9H61.8a2.8,2.8,0,0,0,0,5.6H80.4a2.8,2.8,0,0,0,2.8-2.8,2.86,2.86,0,0,0-2.8-2.8" transform="translate(0 0)" style="fill:#d1d2da"/></g></g></g></svg>