<svg xmlns="http://www.w3.org/2000/svg" xmlns:xlink="http://www.w3.org/1999/xlink" viewBox="0 0 987.73 996.91"><defs><clipPath id="66e1cc46-9cc8-41ba-9a91-ade0a454d865" transform="translate(0 0)"><rect width="987.73" height="996.91" style="fill:none"/></clipPath></defs><title>zoom</title><g id="686d5bea-3aa5-400b-8dee-d2028bc324e6" data-name="Layer 2"><g id="107b1102-9535-4bbf-a699-382b1093f049" data-name="Layer 1"><g style="clip-path:url(#66e1cc46-9cc8-41ba-9a91-ade0a454d865)"><path d="M657,211.88a379.93,379.93,0,0,1,31.9,36.3c-3.1-4-6.3-8.1-9.4-12.1a382,382,0,0,1,48.5,83.1c-2-4.8-4-9.6-6-14.3a378.87,378.87,0,0,1,25.9,94.7c-.7-5.3-1.4-10.6-2.1-16a384,384,0,0,1,0,101.6c.7-5.3,1.4-10.6,2.1-16a380,380,0,0,1-25.9,94.7c2-4.8,4-9.6,6-14.3a379.63,379.63,0,0,1-48.5,83.1c3.1-4,6.3-8.1,9.4-12.1a386.14,386.14,0,0,1-68.2,68.2l12.1-9.4a381.92,381.92,0,0,1-83.1,48.5c4.8-2,9.6-4,14.3-6a378.88,378.88,0,0,1-94.7,25.9l16-2.1a384,384,0,0,1-101.6,0l16,2.1a380,380,0,0,1-94.7-25.9c4.8,2,9.6,4,14.3,6a379.59,379.59,0,0,1-83.1-48.5l12.1,9.4a386.15,386.15,0,0,1-68.2-68.2c3.1,4,6.3,8.1,9.4,12.1a381.88,381.88,0,0,1-48.5-83.1c2,4.8,4,9.6,6,14.3a378.87,378.87,0,0,1-25.9-94.7c.7,5.3,1.4,10.6,2.1,16a384,384,0,0,1,0-101.6c-.7,5.3-1.4,10.6-2.1,16a380,380,0,0,1,25.9-94.7c-2,4.8-4,9.6-6,14.3a379.54,379.54,0,0,1,48.5-83.1c-3.1,4-6.3,8.1-9.4,12.1a386.15,386.15,0,0,1,68.2-68.2l-12.1,9.4a381.91,381.91,0,0,1,83.1-48.5c-4.8,2-9.6,4-14.3,6a378.87,378.87,0,0,1,94.7-25.9l-16,2.1a384,384,0,0,1,101.6,0l-16-2.1a380,380,0,0,1,94.7,25.9c-4.8-2-9.6-4-14.3-6a379.61,379.61,0,0,1,83.1,48.5l-12.1-9.4a394.35,394.35,0,0,1,36.3,31.9,61.78,61.78,0,0,0,42.4,17.6c14.7,0,32.3-6.5,42.4-17.6,10.5-11.4,18.3-26.4,17.6-42.4s-6.1-31-17.6-42.4c-31.3-31.2-67.9-58.5-107.3-78.6C596.09,29,554.79,14.08,512.19,7s-85.4-9.5-128.4-3.8c-23.7,3.1-47,6.9-70,13.6s-45.4,15.8-67.2,25.8c-39.8,18.5-76.5,44.4-108.7,74.2a380,380,0,0,0-41.2,44.8c-15.1,19.3-29.4,38.9-41.4,60.3-20.9,37.6-37,79-45.6,121.2-8.5,41.8-12.1,85.1-8,127.6,4.2,43.1,13,85,29.7,125,9.5,22.7,19.7,44.8,32.6,65.7a486.87,486.87,0,0,0,43.3,58.6c29,33.9,64.5,63.2,102.6,86.4,20.6,12.5,42.3,22.3,64.5,31.6a373.48,373.48,0,0,0,55.4,18.1c41.1,10,84.4,14.6,126.7,12.1,43-2.5,86.1-10.4,126.4-25.6,22.5-8.5,44.8-18.3,65.8-30.1,21.4-12.1,41-26.5,60.2-41.7,35.3-27.9,65.2-62.4,90-99.8,23.8-35.9,41.9-76.5,53.6-117.9,6.6-23.2,10.3-46.8,13.4-70.7a378.49,378.49,0,0,0,3-56.3c-.9-42.8-7.9-86.4-21.5-127.1-13.9-41.4-33.3-81.4-59.2-116.6-14.3-19.4-29.5-38.2-46.5-55.3a61.79,61.79,0,0,0-42.4-17.6c-14.7,0-32.3,6.5-42.4,17.6-10.5,11.4-18.3,26.4-17.6,42.4s6.2,30.9,17.7,42.4" transform="translate(0 0)" style="fill:#fff"/><path d="M631,766q34.5,36.15,69,72.2,54.9,57.45,109.9,114.9l25,26.2c10,10.5,27.8,18.2,42.4,17.6,15.9-.7,30.9-6.1,42.4-17.6l50.4-50.4c10.4-10.4,18.2-27.5,17.6-42.4-.7-16.1-6.3-30.6-17.6-42.4q-34.8-36.3-69.5-72.7l-109.9-115c-8.5-8.9-17-17.7-25.4-26.6-10.5-11-27.4-17.6-42.4-17.6-14.7,0-32.3,6.5-42.4,17.6-10.5,11.4-18.3,26.4-17.6,42.4s6.3,30.6,17.6,42.4q34.8,36.3,69.5,72.7l109.9,115c8.5,8.9,17,17.7,25.4,26.6V844l-50.4,50.4h84.9q-34.5-36.15-69-72.2-54.9-57.3-109.9-114.8l-25-26.2c-10.5-11-27.4-17.6-42.4-17.6-14.7,0-32.3,6.5-42.4,17.6-10.5,11.4-18.3,26.4-17.6,42.4s6.2,30.6,17.5,42.4" transform="translate(0 0)" style="fill:#fff"/><path d="M494.59,577.58V291.08a61.78,61.78,0,0,0-17.6-42.4c-10.4-10.4-27.5-18.2-42.4-17.6-15.5.7-31.6,5.8-42.4,17.6s-17.6,26.2-17.6,42.4v286.5A61.78,61.78,0,0,0,392.2,620c10.4,10.4,27.5,18.2,42.4,17.6,15.5-.7,31.6-5.8,42.4-17.6s17.6-26.2,17.6-42.4" transform="translate(0 0)" style="fill:#fff"/><path d="M291.29,494.38h286.5a61.78,61.78,0,0,0,42.4-17.6c10.4-10.4,18.2-27.5,17.6-42.4-.7-15.5-5.8-31.6-17.6-42.4s-26.2-17.6-42.4-17.6H291.29a61.78,61.78,0,0,0-42.4,17.6c-10.4,10.4-18.2,27.5-17.6,42.4.7,15.5,5.8,31.6,17.6,42.4s26.2,17.6,42.4,17.6" transform="translate(0 0)" style="fill:#fff"/></g></g></g></svg>