<svg xmlns="http://www.w3.org/2000/svg" viewBox="0 0 72.5 48.53"><defs><clipPath id="a"><path fill="none" d="M0 0h72.5v48.53H0z"/></clipPath></defs><title>cash</title><g clip-path="url(#a)" fill="#d1d2da" data-name="Layer 1"><path d="M70.45 16.37h-3.5v4.09h1.46v5a7.24 7.24 0 0 1-1.46-.6v4.44a11.73 11.73 0 0 0 1.46.36v5.65a11.38 11.38 0 0 0-1.46.36v2.57a3.51 3.51 0 0 1-3.51 3.51h-3.33a11.29 11.29 0 0 0-.47 1.25 12 12 0 0 0-.38 1.46h-32a11.5 11.5 0 0 0-.34-1.46 10.88 10.88 0 0 0-.46-1.17h-4.77a7.37 7.37 0 0 1 .8 1.17 7.17 7.17 0 0 1 .6 1.46h-5V41.8H14v4.68a2 2 0 0 0 2 2h54.45a2 2 0 0 0 2-2V18.42a2 2 0 0 0-2-2M64.09 43a7.34 7.34 0 0 1 2.85-2.82 7.18 7.18 0 0 1 1.46-.6v4.88h-4.94a7.31 7.31 0 0 1 .63-1.46"/><path d="M63.44 40.34a2 2 0 0 0 2-2V10.23a2 2 0 0 0-2-2h-3.51v4.09h1.46v5a7.3 7.3 0 0 1-1.39-.55h-.09v4.43a11.08 11.08 0 0 0 1.46.37v5.65a11.24 11.24 0 0 0-1.46.36v2.57a3.51 3.51 0 0 1-3.51 3.51h-3.31a11.26 11.26 0 0 0-.85 2.63h-32c0-.13 0-.26-.07-.39-.08-.36-.18-.73-.29-1.07s-.2-.59-.32-.87c0-.1-.09-.2-.14-.3h-4.75a7.29 7.29 0 0 1 .8 1.17c.06.11.11.23.17.34a7.22 7.22 0 0 1 .43 1.12h-5v-2.67H7v4.68a2 2 0 0 0 2 2h54.44zm-6.36-5.55a7.29 7.29 0 0 1 4.31-3.42v4.88h-4.94a7 7 0 0 1 .63-1.46"/><path d="M56.42 32.16a2 2 0 0 0 2-2V2a2 2 0 0 0-2-2H2a2 2 0 0 0-2 2v28.11a2 2 0 0 0 2 2zM4.09 4.09h5a7.18 7.18 0 0 1-.6 1.46A7.33 7.33 0 0 1 7 7.43c-.14.13-.28.25-.43.37a7.41 7.41 0 0 1-1 .66 7.28 7.28 0 0 1-1.46.6v-5zm1.46 8.8a11.38 11.38 0 0 0 1.45-.6 11.34 11.34 0 0 0 2-1.28 11.74 11.74 0 0 0 .9-.78 11.48 11.48 0 0 0 1.67-2 11.37 11.37 0 0 0 .79-1.46 11.58 11.58 0 0 0 .46-1.17 11.59 11.59 0 0 0 .36-1.46H45.2a10.94 10.94 0 0 0 .35 1.46A11.43 11.43 0 0 0 46 6.72a11.69 11.69 0 0 0 .78 1.46 11.25 11.25 0 0 0 4.47 4.09 11.37 11.37 0 0 0 1.06.47l.61.22a11.32 11.32 0 0 0 1.46.36V19a11 11 0 0 0-3.86 1.48 11.57 11.57 0 0 0-1.91 1.46 11.72 11.72 0 0 0-1.43 1.64 11.42 11.42 0 0 0-1.56 3 12.948 12.948 0 0 0-.38 1.46h-32c0-.13 0-.26-.07-.39-.08-.36-.18-.72-.29-1.07s-.2-.59-.32-.87a11.34 11.34 0 0 0-1.46-2.51 11.4 11.4 0 0 0-1.5-1.62 7.88 7.88 0 0 0-.55-.46 11.49 11.49 0 0 0-2-1.26H7a11.67 11.67 0 0 0-1.46-.6 11.65 11.65 0 0 0-1.46-.36v-5.65a11.23 11.23 0 0 0 1.46-.36m48.82-8.8v5A7.27 7.27 0 0 1 53 8.58h-.09c-.2-.11-.39-.23-.58-.35a7.41 7.41 0 0 1-1.59-1.46 7.28 7.28 0 0 1-1.35-2.63zm0 24h-4.93a7 7 0 0 1 .63-1.46l.13-.22a7.24 7.24 0 0 1 4.18-3.2zm-50.28-5a7.2 7.2 0 0 1 1.46.6A7.35 7.35 0 0 1 7 24.77a7.35 7.35 0 0 1 1.45 1.83c.06.11.11.23.17.34a7.31 7.31 0 0 1 .44 1.12h-5z"/><path d="M20.72 18.42a10.76 10.76 0 0 0 .65 2 10.36 10.36 0 0 0 .78 1.46l.17.26a9.11 9.11 0 0 0 3 2.81 8 8 0 0 0 2.23.85 7.59 7.59 0 0 0 4.11-.23 8.89 8.89 0 0 0 4.6-3.68 10.16 10.16 0 0 0 .78-1.46 10.81 10.81 0 0 0 .59-1.74l.07-.31a11 11 0 0 0 .24-2v-.29a11.54 11.54 0 0 0-.07-1.17c0-.14 0-.27-.06-.4s-.08-.51-.13-.76a10.67 10.67 0 0 0-.41-1.46 10.32 10.32 0 0 0-1-2 9.56 9.56 0 0 0-1.77-2 8.47 8.47 0 0 0-2.37-1.46 7.67 7.67 0 0 0-5.87 0 8.51 8.51 0 0 0-2.37 1.46 9.58 9.58 0 0 0-1.77 2 10.27 10.27 0 0 0-1 2 11.76 11.76 0 0 0-.6 2.63 11.26 11.26 0 0 0-.07 1.17v.29a11 11 0 0 0 .24 2M25 13.74a6.12 6.12 0 0 1 .76-1.46 4.34 4.34 0 0 1 3.53-2 4.34 4.34 0 0 1 3.52 2 6.16 6.16 0 0 1 .76 1.46 7.13 7.13 0 0 1 .26 1v.17a7.22 7.22 0 0 1 .09 1.17v.29a7 7 0 0 1-.37 2 5.94 5.94 0 0 1-1.22 2 4.17 4.17 0 0 1-3.06 1.46 3.8 3.8 0 0 1-1.43-.31 4.24 4.24 0 0 1-.7-.36 4.75 4.75 0 0 1-.93-.79 6 6 0 0 1-1.22-2 7 7 0 0 1-.36-1.86v-.18-.29a7.1 7.1 0 0 1 .09-1.17 6.7 6.7 0 0 1 .3-1.17"/></g></svg>