<svg xmlns="http://www.w3.org/2000/svg" viewBox="0 0 381 381"><title>igm</title><path d="M190.5 92a98.5 98.5 0 1 0 98.5 98.5A98.5 98.5 0 0 0 190.5 92zm0 161a63.5 63.5 0 1 1 63.5-63.5 63.5 63.5 0 0 1-63.5 63.5zM292 65a23 23 0 1 0 23 23 23 23 0 0 0-23-23zM271 0H110A110 110 0 0 0 0 110v161a110 110 0 0 0 110 110h161a110 110 0 0 0 110-110V110A110 110 0 0 0 271 0zm74 274a70 70 0 0 1-70 70s-40.82 2-82.33 2c-43 0-86.67-2-86.67-2a70 70 0 0 1-70-70s-1-39.3-1-80c0-43.7 1-89 1-89a70 70 0 0 1 70-70s44.17-2 88.67-2C234.4 33 275 35 275 35a70 70 0 0 1 70 70s2 45.3 2 89c0 40.7-2 80-2 80z" fill="#fff" fill-rule="evenodd" data-name="Layer 1"/></svg>