<svg xmlns="http://www.w3.org/2000/svg" viewBox="0 0 98.52 100"><defs><clipPath id="a" transform="translate(-.74)"><path fill="none" d="M0 0h100v100H0z"/></clipPath></defs><title>schedule</title><g clip-path="url(#a)" fill="#d1d2da" data-name="Layer 1"><path d="M25.26 45.59h3a5.17 5.17 0 0 1 5.17 5.17v3A5.17 5.17 0 0 1 28.26 59h-3a5.17 5.17 0 0 1-5.17-5.17v-3a5.17 5.17 0 0 1 5.17-5.24M47.75 45.59h3a5.17 5.17 0 0 1 5.17 5.17v3A5.17 5.17 0 0 1 50.78 59h-3a5.17 5.17 0 0 1-5.17-5.17v-3a5.17 5.17 0 0 1 5.17-5.17M70.26 45.59h3a5.17 5.17 0 0 1 5.17 5.17v3A5.17 5.17 0 0 1 73.26 59h-3a5.17 5.17 0 0 1-5.17-5.17v-3a5.17 5.17 0 0 1 5.17-5.24M25.26 67.9h3a5.17 5.17 0 0 1 5.17 5.17v3a5.17 5.17 0 0 1-5.17 5.2h-3a5.17 5.17 0 0 1-5.17-5.17v-3a5.17 5.17 0 0 1 5.17-5.2M47.75 67.9h3a5.17 5.17 0 0 1 5.17 5.17v3a5.17 5.17 0 0 1-5.17 5.17h-3a5.17 5.17 0 0 1-5.17-5.17v-3a5.17 5.17 0 0 1 5.17-5.17M70.26 67.9h3a5.17 5.17 0 0 1 5.17 5.17v3a5.17 5.17 0 0 1-5.17 5.2h-3a5.17 5.17 0 0 1-5.17-5.17v-3a5.17 5.17 0 0 1 5.17-5.2"/><path d="M86.79 100H11.73C5.26 100 0 95.21 0 89.33V24.54c0-5.89 5.26-10.67 11.73-10.67h75.06c6.47 0 11.73 4.78 11.73 10.67v64.79c0 5.88-5.26 10.67-11.73 10.67M11.73 21.77c-2.08 0-3.83 1.27-3.83 2.77v64.79c0 1.5 1.75 2.77 3.83 2.77h75.06c2.08 0 3.83-1.27 3.83-2.77V24.54c0-1.5-1.75-2.77-3.83-2.77z"/><path d="M29.55 33.46a4 4 0 0 1-3.82-4V4.06a4 4 0 1 1 7.91-.15v25.6a4 4 0 0 1-4 4M49.12 33.46a4 4 0 0 1-3.81-4V4.06a4 4 0 0 1 7.95-.2V29.51a4 4 0 0 1-4 4h-.09M68.7 33.46a4 4 0 0 1-3.82-4V4.06a4 4 0 1 1 7.91-.15v25.6a4 4 0 0 1-4 4"/></g></svg>