<svg xmlns="http://www.w3.org/2000/svg" viewBox="0 0 94.9 94.1"><defs><clipPath id="a"><path fill="none" d="M0 0h94.9v94.1H0z"/></clipPath></defs><title>talk</title><g clip-path="url(#a)" fill="#d1d2da" data-name="Layer 1"><path d="M80.8 43.9c-1 1.2-2.1 2.3-3.1 3.4v19.2H6.9V26.9h34.9v-6.8h-38A3.8 3.8 0 0 0 0 23.9V76a3.8 3.8 0 0 0 3.8 3.8h30.9v6.9h-6.8a2 2 0 0 0-1.9 1.9v3.6a1.9 1.9 0 0 0 1.9 1.9h28.8a1.9 1.9 0 0 0 1.9-1.9v-3.6a2 2 0 0 0-1.9-1.9h-6.8v-6.9h30.9a3.8 3.8 0 0 0 3.8-3.8V43.8a10.86 10.86 0 0 1-1.8.1zM42.3 75.7a2.6 2.6 0 1 1 0-5.2 2.6 2.6 0 0 1 0 5.2"/><path d="M82.7 0H59.5a12.29 12.29 0 0 0-12.3 12.3v13.8a12.29 12.29 0 0 0 12.3 12.3H61a18.56 18.56 0 0 1-1.1 4.7 4.78 4.78 0 0 0 1.3 5.3 4.65 4.65 0 0 0 5.4.6 40.72 40.72 0 0 0 11.5-10.6h4.5a12.29 12.29 0 0 0 12.3-12.3V12.3A12.14 12.14 0 0 0 82.7 0m-8.4 33.7a46.21 46.21 0 0 1-8 8.4 25.27 25.27 0 0 0 .6-6.8 3 3 0 0 0-2.9-2.8h-4.5a6.44 6.44 0 0 1-6.4-6.4V12.3a6.44 6.44 0 0 1 6.4-6.4h23.2a6.44 6.44 0 0 1 6.4 6.4v13.8a6.44 6.44 0 0 1-6.4 6.4h-6a3.3 3.3 0 0 0-2.4 1.2"/><path d="M61.8 17.2h18.6a2.79 2.79 0 0 0 2.8-2.8 2.73 2.73 0 0 0-2.8-2.8H61.8a2.8 2.8 0 1 0 0 5.6M80.4 20.9H61.8a2.8 2.8 0 0 0 0 5.6h18.6a2.8 2.8 0 0 0 2.8-2.8 2.86 2.86 0 0 0-2.8-2.8"/></g></svg>